<svg xmlns="http://www.w3.org/2000/svg" xmlns:xlink="http://www.w3.org/1999/xlink" viewBox="0 0 150 95"><defs><style>.cls-1{fill:#e6e4e5;}.cls-2{fill:#ffeaa7;}.cls-3{fill:url(#linear-gradient);}.cls-4{fill:#fff;}.cls-5,.cls-6{fill:none;}.cls-5{stroke:#fff;stroke-linecap:round;stroke-linejoin:round;stroke-width:1.73px;}.cls-6{stroke:#e6e4e5;stroke-miterlimit:10;stroke-width:2px;}</style><linearGradient id="linear-gradient" x1="18.56" y1="57.53" x2="86.74" y2="57.53" gradientUnits="userSpaceOnUse"><stop offset="0.2" stop-color="#878787"/><stop offset="0.44" stop-color="#747473"/><stop offset="0.78" stop-color="#5f5f5e"/><stop offset="1" stop-color="#575756"/></linearGradient></defs><g id="kitaca"><rect class="cls-1" x="0.2" width="149.6" height="94.98" rx="9.4"/><path class="cls-2" d="M77.9,4.9H14.5a8.5,8.5,0,0,0-8.6,8.6v68a8.5,8.5,0,0,0,8.6,8.6h121a8.5,8.5,0,0,0,8.5-8.6v-25Z"/><rect class="cls-1" x="22.8" y="55.7" width="57" height="34.55"/><path class="cls-3" d="M18.7,90.2h6.1C30.4,87.6,47.3,79,43.7,75c-1.8-1.9-3.9-.9-9.9-.7A3.5,3.5,0,0,1,30,69.9c1.8-6.8,8.7-10.6,14-10.6l18.3.2c6.1,0,10.9,4.1,14,9.1,1.3,2.1,1.5,7.8-.9,8s-8.8-2.7-11.2.6,6.8,10.2,10.6,13H86.7c.5-9.1-3.9-39-15.1-53.2a.7.7,0,0,1,.1-1.1C73,34.8,75,32.1,75,30s-3.2-4.6-6-5.1-3.9,1.7-4.5,4a.8.8,0,0,1-1.2.5,20.8,20.8,0,0,0-13.7-3.2c-6.5.7-11.1,2.7-14.4,5.2a.8.8,0,0,1-1.3-.4c-.7-2.7-3.3-4.4-6.4-4.7-4.9-.4-6.7,2.9-6.7,6.4a6.6,6.6,0,0,0,6.7,6.5h0c.6,0,1.1.6.8,1.1C20,53.1,17.9,83,18.7,90.2Z"/><path class="cls-4" d="M47.9,46.7c0,1.7,1.7,3.1,3.9,3.1s3.8-1.4,3.8-3.1-1.7-3.1-3.8-3.1S47.9,45,47.9,46.7Z"/><path class="cls-5" d="M35.7,45.4s2.9-6.5,8.9-2"/><path class="cls-5" d="M58.2,42.8s4.1-5.8,9.2-.2"/><path class="cls-6" d="M71.9,37.2a.9.9,0,0,1,.1-1.1c1.3-1.1,3.4-3.8,3.4-5.9s-3.2-4.6-6-5.1-3.9,1.6-4.6,4a.8.8,0,0,1-1.1.5A20.9,20.9,0,0,0,50,26.4c-6.5.7-11.1,2.6-14.4,5.2a.9.9,0,0,1-1.3-.4,7,7,0,0,0-6.4-4.7c-4.9-.4-6.7,2.8-6.7,6.4a6.5,6.5,0,0,0,6.7,6.4h0a.8.8,0,0,1,.7,1.2c-8.2,12.8-10.3,42.7-9.5,49.9h68C87.6,81.2,83.1,51.4,71.9,37.2Z"/></g></svg>