<svg xmlns="http://www.w3.org/2000/svg" xmlns:xlink="http://www.w3.org/1999/xlink" viewBox="0 0 150 95"><defs><style>.cls-1{fill:#e6e4e5;}.cls-2{fill:#927dd1;}.cls-3{fill:#fff;}.cls-4{fill:#009fe3;}.cls-5{fill:none;stroke:#e6e4e5;stroke-miterlimit:10;stroke-width:2px;}.cls-6{fill:#f9b233;}.cls-7{fill:#e2e2e2;}.cls-8{fill:url(#linear-gradient);}.cls-9{fill:url(#linear-gradient-2);}.cls-10{fill:url(#linear-gradient-3);}</style><linearGradient id="linear-gradient" x1="63.88" y1="44.2" x2="76.42" y2="44.2" gradientUnits="userSpaceOnUse"><stop offset="0" stop-color="#ffde00"/><stop offset="1" stop-color="#f9b233"/></linearGradient><linearGradient id="linear-gradient-2" x1="51.16" y1="39.72" x2="60.08" y2="39.72" gradientUnits="userSpaceOnUse"><stop offset="0.2" stop-color="#878787"/><stop offset="0.21" stop-color="#878787"/><stop offset="1" stop-color="#807f84"/></linearGradient><linearGradient id="linear-gradient-3" x1="73.84" y1="36.38" x2="79.96" y2="36.38" xlink:href="#linear-gradient-2"/></defs><g id="hayaken"><rect class="cls-1" x="0.2" y="0.2" width="149.6" height="94.3" rx="9.4"/><path class="cls-2" d="M78,5H14.5A8.5,8.5,0,0,0,6,13.5V81.1a8.5,8.5,0,0,0,8.5,8.5h121a8.5,8.5,0,0,0,8.6-8.5V56.3Z"/></g><g id="pitapa"><path class="cls-3" d="M92.3,89.9,92,88.1,84.5,40.8A28.1,28.1,0,0,0,57.1,17.4h0A28,28,0,0,0,29.8,40.8L22.2,88.1c-.1.6-.1,1.2-.2,1.8Z"/><path class="cls-4" d="M31.9,89.7c10.5-5.6,23-12.9,23.6-16.5,1.3-6.7-3.9-6.3-7-6.3-7-.1-5.8-8.7-3.4-21.4s11.3-13,14.5-11.2,5.1,7.4,5.1,7.4l8.4-1.4s-.6-5.9,1.2-7.3,4.9-2.4,6.6,5,5.9,24,2.9,27.8-5.4,2.8-6.7,6c-2.3,5.4,3.8,8.9,7.9,11.6,1.9,1.2,4.7,3.2,7.1,4.9a.3.3,0,0,1-.1-.2L84.5,40.8A28.1,28.1,0,0,0,57.1,17.4h0A28,28,0,0,0,29.8,40.8L22.2,88.1a8.8,8.8,0,0,1-.2,1.6Z"/><path class="cls-5" d="M92.5,89.7l-.3-1.6h0v-.2L84.7,40.6c-.2-.8-.3-1.7-.5-2.5l-.8-2.4a21.7,21.7,0,0,0-1.5-3.5l-1.2-2.1a6.1,6.1,0,0,1-.7-1A28.8,28.8,0,0,0,60.9,17.4l-3.6-.2h0A28,28,0,0,0,30,40.6L22.4,87.9c-.1.6-.1,1.1-.2,1.7H92.5Z"/><path class="cls-6" d="M65.3,41.8l8.1,1.5c.6.1.9.7.9,1.4L74,50.5c0,1.4-1.4,2.2-2.2,1.4s-5.3-6.2-7.5-8.5S63.9,41.5,65.3,41.8Z"/><path class="cls-7" d="M100.9,73.2,77.1,84.6a3.2,3.2,0,0,1-4.4-1.8l-10-31.2c-.4-.9.4-2.2,1.7-2.8l16.7-8a2.6,2.6,0,0,1,3.3.5l17.8,27.4A3,3,0,0,1,100.9,73.2Z"/><path class="cls-2" d="M86.5,62.7a3.4,3.4,0,0,1-4.6-1.2,3.2,3.2,0,0,1,1.8-4.1,3.5,3.5,0,0,1,4.5,1.1C89.1,59.9,88.3,61.8,86.5,62.7Z"/><path class="cls-2" d="M94.6,59.7a.1.1,0,0,0-.1-.1C94.5,59.5,94.5,59.6,94.6,59.7Z"/><path class="cls-2" d="M76.1,82.5,98.4,71.9a2.8,2.8,0,0,0,1.3-4.1l-5.1-8.1c.4,1.1.6,7.2-5.9,10.2S78,66,78,66s3.6-1.5,3.3-1.6-5.9-6.2-5.9-6.2l-.9.5L75.9,62l-7.3,3.5,5.5,16.2A1.3,1.3,0,0,0,76.1,82.5Z"/><path class="cls-8" d="M65,41.5l8.1-1.6a1.1,1.1,0,0,1,1.3.9l1.9,5.6c.4,1.2-.5,2.5-1.5,2L64.7,43.2C63.5,42.6,63.6,41.7,65,41.5Z"/><path class="cls-9" d="M52,41.9a.7.7,0,0,1-.6-.2.9.9,0,0,1,0-1.2c.3-.3,3.4-3.3,6.1-3A3.3,3.3,0,0,1,60,39.2a.9.9,0,0,1-1.5.9,1.4,1.4,0,0,0-1.2-.9c-1.7-.2-4,1.7-4.7,2.5A.7.7,0,0,1,52,41.9Z"/><path class="cls-10" d="M74.7,38.6h-.5a.8.8,0,0,1-.2-1.2c.3-.5,2.1-3.3,4-3.1s1.4.4,1.9,1.8a.9.9,0,0,1-.5,1.1.9.9,0,0,1-1.1-.5c-.2-.6-.4-.8-.5-.8s-1.7,1.2-2.4,2.4A.8.8,0,0,1,74.7,38.6Z"/></g></svg>