<svg xmlns="http://www.w3.org/2000/svg" viewBox="0 0 150 95"><defs><style>.cls-1{fill:#e6e4e5;}.cls-2{fill:#9ad4e8;}.cls-3{fill:#c27c40;}.cls-10,.cls-11,.cls-3,.cls-4,.cls-5,.cls-8,.cls-9{stroke:#727272;stroke-width:1.72px;}.cls-10,.cls-11,.cls-3,.cls-5,.cls-9{stroke-miterlimit:10;}.cls-4{fill:#f7aabd;}.cls-4,.cls-8{stroke-linecap:round;stroke-linejoin:round;}.cls-5,.cls-7{fill:#fff;}.cls-10,.cls-6{fill:#727272;}.cls-8{fill:none;}.cls-9{fill:#c2d240;}.cls-11{fill:#f9ed62;}</style></defs><g id="hayaken"><rect class="cls-1" x="0.5" y="0.3" width="149.6" height="94.3" rx="9.4"/><path class="cls-2" d="M78.3,5.2H14.9a8.5,8.5,0,0,0-8.6,8.5V81.3a8.5,8.5,0,0,0,8.6,8.5h121a8.5,8.5,0,0,0,8.5-8.5V56.5Z"/><path class="cls-3" d="M68,33.9c-1.2,3.4-4,5.4-6.3,4.6s-3.3-4.2-2.1-7.5,4-5.4,6.3-4.6S69.2,30.6,68,33.9Z"/><path class="cls-4" d="M65,34.4c-.8,2.3-2.3,3.9-3.4,3.6s-1.2-2.6-.4-5,2.3-3.9,3.4-3.6S65.8,32,65,34.4Z"/><path class="cls-3" d="M21.5,35.2c1.2,3.3,4,5.4,6.3,4.6s3.3-4.2,2.1-7.6-4-5.4-6.3-4.6S20.3,31.8,21.5,35.2Z"/><path class="cls-4" d="M24.5,35.6c.8,2.4,2.3,4,3.4,3.6s1.2-2.6.4-4.9-2.3-4-3.4-3.6S23.7,33.3,24.5,35.6Z"/><path class="cls-3" d="M62.3,72.8A22.4,22.4,0,0,1,45,81.9c-5.7,0-12.6-3-17.2-9.1C17.9,59.9,17.3,29.3,45,29.3S72.2,59.9,62.3,72.8Z"/><path class="cls-5" d="M43.1,55.6c-.1,6-3.3,10.8-7.2,10.8s-7-4.9-7-10.9,3.3-10.8,7.2-10.8S43.1,49.6,43.1,55.6Z"/><path class="cls-6" d="M40.9,52.7c-.1,3.5-1.8,6.3-4,6.3s-3.8-2.9-3.8-6.3,1.8-6.3,3.9-6.3S40.9,49.3,40.9,52.7Z"/><path class="cls-7" d="M40,51.1c0,1.6-.8,2.8-1.8,2.8s-1.7-1.3-1.7-2.8.8-2.8,1.8-2.8S40,49.5,40,51.1Z"/><path class="cls-7" d="M36.5,54.1c0,.8-.4,1.4-.9,1.4s-.8-.6-.8-1.4.4-1.4.9-1.4S36.5,53.3,36.5,54.1Z"/><path class="cls-5" d="M62.3,56.2c0,6-3.3,10.9-7.2,10.8s-7-4.9-6.9-10.9,3.2-10.8,7.1-10.8S62.4,50.3,62.3,56.2Z"/><path class="cls-6" d="M60.1,53.4c0,3.4-1.8,6.2-3.9,6.2s-3.9-2.8-3.8-6.3,1.7-6.3,3.9-6.2S60.1,49.9,60.1,53.4Z"/><path class="cls-7" d="M59.2,51.7c0,1.6-.8,2.9-1.7,2.8s-1.8-1.2-1.8-2.8.9-2.8,1.8-2.8S59.2,50.2,59.2,51.7Z"/><path class="cls-7" d="M55.7,54.7c0,.8-.4,1.5-.8,1.4s-.9-.6-.9-1.4.4-1.4.9-1.4S55.8,54,55.7,54.7Z"/><path class="cls-5" d="M63.1,71.2c-1.4-2.1-4.6-2.9-7.6-2a15.2,15.2,0,0,0-9.7-3A15.2,15.2,0,0,0,36,69.8c-3.7-.9-7.5.3-8.5,3s1.1,5.9,4.9,7.1a7.8,7.8,0,0,0,3,.4c2.3,2.6,6.3,4.2,10.9,4.1s8.4-1.9,10.6-4.5a8.1,8.1,0,0,0,2.9-.9C63.3,77.2,64.8,73.7,63.1,71.2Z"/><path class="cls-3" d="M49.9,66.8c.1,2.5-2.2,4.5-5,4.6s-5.2-1.9-5.3-4.3a4.8,4.8,0,0,1,5.1-4.6C47.5,62.4,49.9,64.3,49.9,66.8Z"/><path class="cls-4" d="M47.3,77.6c0,1.8-1,3.3-2.3,3.3s-2.3-1.5-2.3-3.3,1.1-3.3,2.3-3.3S47.3,75.8,47.3,77.6Z"/><path class="cls-8" d="M29.8,43.8s.9-2.6,5-3.5"/><path class="cls-8" d="M61.7,43.8s-.9-2.6-5.1-3.5"/><path class="cls-9" d="M41.3,17.7s-2.9,4.9-3.9,6.2S32.3,29,32.3,29a1.7,1.7,0,0,0,1.3,2.8H55.9A1.7,1.7,0,0,0,57.2,29a60.6,60.6,0,0,1-4.7-4.9c-1-1.3-4.3-6.4-4.3-6.4A4.3,4.3,0,0,0,41.3,17.7Z"/><path class="cls-9" d="M42.8,22.4,35.9,29a1,1,0,0,0,.7,1.8H53a1,1,0,0,0,.7-1.8l-6.9-6.6A3,3,0,0,0,42.8,22.4Z"/><path class="cls-10" d="M43,27a4.4,4.4,0,0,1,3.7.1l4.5,2.1a2.2,2.2,0,0,1,.6,3.7h0a2.3,2.3,0,0,1-2.1.5l-3.9-1.1H44.6l-4.3,1.1c-1.1.3-3.5-.6-3.3-1.9S38.3,29.4,43,27Z"/><path class="cls-11" d="M48.2,23.9a3.5,3.5,0,1,1-3.4-3.5A3.5,3.5,0,0,1,48.2,23.9Z"/></g></svg>