<svg xmlns="http://www.w3.org/2000/svg" xmlns:xlink="http://www.w3.org/1999/xlink" viewBox="0 0 150 95"><defs><style>.cls-1{fill:#e6e4e5;}.cls-2{fill:#9ad4e8;}.cls-3{fill:url(#linear-gradient);}.cls-4,.cls-6{stroke:#e6e4e5;stroke-miterlimit:10;stroke-width:2.3px;}.cls-4{fill:url(#linear-gradient-2);}.cls-5{fill:#ff7300;}.cls-6{fill:url(#linear-gradient-3);}.cls-7{fill:none;stroke:#ff7300;stroke-linecap:round;stroke-linejoin:round;stroke-width:2px;}</style><linearGradient id="linear-gradient" x1="5.83" y1="63.51" x2="143.7" y2="63.51" gradientUnits="userSpaceOnUse"><stop offset="0" stop-color="#009fe3"/><stop offset="1" stop-color="#a52be1"/></linearGradient><linearGradient id="linear-gradient-2" x1="83.48" y1="37.26" x2="40.26" y2="96.22" gradientUnits="userSpaceOnUse"><stop offset="0" stop-color="#ffde00"/><stop offset="1" stop-color="#f9b233"/></linearGradient><linearGradient id="linear-gradient-3" x1="16.61" y1="64.73" x2="56.69" y2="64.73" xlink:href="#linear-gradient-2"/></defs><g id="toica"><rect class="cls-1" x="0.1" y="0.6" width="149.6" height="94.56" rx="9.4"/><path class="cls-2" d="M77.8,5.4H14.4a8.6,8.6,0,0,0-8.6,8.5V81.7a8.7,8.7,0,0,0,8.6,8.6h121a8.7,8.7,0,0,0,8.6-8.6V56.8Z"/><path class="cls-3" d="M125.2,75.7C73.5,79.2,54.4,41.8,13.8,37.3l-8-.5V83.7c0,3.6,3.9,6.5,8.6,6.5H135.1c4.7,0,8.6-2.9,8.6-6.5v-10C137.2,74.7,130.9,75.4,125.2,75.7Z"/><path class="cls-4" d="M23.1,90.5H90.4A29.8,29.8,0,0,0,92.6,79a30.1,30.1,0,0,0-3-13.3,3.5,3.5,0,0,1,.2-3,21.1,21.1,0,0,0,3.3-11.4c0-11-13.7-23.8-24.6-25.4-1.1-.2,1.1,3.6,0,3.6-10.2,0-16.7,6.4-19.5,15.3a3.5,3.5,0,0,1-2.2,2.1c-6.2,1.5-16.9.7-16.9.7S18.7,63.1,20.2,79A34.8,34.8,0,0,0,23.1,90.5Z"/><path class="cls-5" d="M71.5,56s9.9-6.3,10.6-5-4.7,6.6-4.7,6.6,2.7,3.1,1.5,3.4S71.9,58.4,71.5,56Z"/><path class="cls-6" d="M55.4,57.9c3.5,4.1.1,19.2-12.4,17.5S14.5,66.1,16.8,63.2,46.8,47.6,55.4,57.9Z"/><path class="cls-7" d="M67.4,48.6s6.6-3.4,7,0"/><path class="cls-7" d="M85.2,51.3s4.2-3.4,4.5,0"/></g></svg>