<svg xmlns="http://www.w3.org/2000/svg" xmlns:xlink="http://www.w3.org/1999/xlink" viewBox="0 0 150 95"><defs><style>.cls-1{fill:#e6e4e5;}.cls-2{fill:url(#linear-gradient);}.cls-3{stroke:#e6e4e5;fill:url(#linear-gradient-2);}.cls-3,.cls-5,.cls-6{stroke-miterlimit:10;}.cls-3,.cls-4{stroke-width:2.26px;}.cls-4{fill:none;stroke-linecap:round;stroke-linejoin:round;}.cls-4,.cls-5,.cls-6{stroke:#878787;}.cls-5,.cls-6{stroke-width:1.62px;}.cls-5{fill:url(#linear-gradient-3);}.cls-6{fill:url(#linear-gradient-4);}.cls-7{fill:#878787;}</style><linearGradient id="linear-gradient" x1="6" y1="47.57" x2="144.13" y2="47.57" gradientUnits="userSpaceOnUse"><stop offset="0" stop-color="#009fe3"/><stop offset="1" stop-color="#a52be1"/></linearGradient><linearGradient id="linear-gradient-2" x1="9.7" y1="59.99" x2="115.25" y2="59.99" gradientUnits="userSpaceOnUse"><stop offset="0" stop-color="#009fe3"/><stop offset="0.03" stop-color="#05a2e4"/><stop offset="0.49" stop-color="#41c8f3"/><stop offset="0.82" stop-color="#66e0fc"/><stop offset="1" stop-color="#74e9ff"/></linearGradient><linearGradient id="linear-gradient-3" x1="-1373.3" y1="48.4" x2="-1341.34" y2="48.4" gradientTransform="matrix(-1, 0, 0, 1, -1294.37, 0)" gradientUnits="userSpaceOnUse"><stop offset="0.17" stop-color="#f87f3f"/><stop offset="1" stop-color="#fddd6e"/></linearGradient><linearGradient id="linear-gradient-4" x1="-1370.88" y1="59.14" x2="-1344.27" y2="59.14" xlink:href="#linear-gradient-3"/></defs><g id="icoca"><rect class="cls-1" x="0.2" y="0.3" width="149.6" height="94.56" rx="9.4"/><path class="cls-2" d="M78,5.1H14.6A8.6,8.6,0,0,0,6,13.7V81.5A8.5,8.5,0,0,0,14.6,90h121a8.5,8.5,0,0,0,8.5-8.5V56.6Z"/><path class="cls-3" d="M30.5,89.9H95.3L94.6,85c6.5.9,19.2,2.1,20.5-1.5,2.1-6-16.4-16.4-24-20.4L88.4,46.2c-1.5-9.3-12.9-16.1-25.5-16.1h0c-12.5,0-23.9,6.8-25.4,16.1L35.1,61.3C28.4,64.7,7.7,76,9.9,82.3c1.3,3.9,15.5,2.3,21.6,1.4Z"/><path class="cls-4" d="M82.4,40.7A26.1,26.1,0,0,0,70,39.6"/><path class="cls-4" d="M43.3,40.4s6.6-2.2,12.5-.5"/><path class="cls-5" d="M68.9,43.4l9.6,9.7a1.1,1.1,0,0,1-.6,1.9H48a1.1,1.1,0,0,1-.7-1.9l9.8-9.7C59.6,41.3,66.4,41.3,68.9,43.4Z"/><path class="cls-6" d="M60.6,62.2,50.3,56.8c-.7-.3-.4-1.1.3-1.1H75.8c.7,0,1,.8.3,1.1l-10,5.4A8.6,8.6,0,0,1,60.6,62.2Z"/><path class="cls-7" d="M66,49.9a1.3,1.3,0,0,0-.3,1.8c.4.5,1.2.3,1.8-.3s.8-1.4.4-1.8A1.4,1.4,0,0,0,66,49.9Z"/><path class="cls-7" d="M60.1,49.9c.6.6.8,1.4.4,1.8s-1.2.3-1.8-.3-.8-1.4-.4-1.8A1.3,1.3,0,0,1,60.1,49.9Z"/></g></svg>