<svg id="suica" xmlns="http://www.w3.org/2000/svg" viewBox="0 0 150 95"><defs><style>.cls-1{fill:#e6e4e5;}.cls-2,.cls-3{fill:#58e06b;}.cls-3{stroke:#fff;stroke-width:2px;}.cls-3,.cls-5{stroke-linecap:round;stroke-miterlimit:10;}.cls-4,.cls-5{fill:#fff;}.cls-5{stroke:#58e06b;stroke-width:2.36px;}</style></defs><rect class="cls-1" x="0.2" y="0.2" width="149.6" height="94.56" rx="9.4"/><path class="cls-2" d="M77.9,5.1H14.5a8.6,8.6,0,0,0-8.6,8.5V81.4a8.6,8.6,0,0,0,8.6,8.5h121a8.6,8.6,0,0,0,8.6-8.5V56.5Z"/><ellipse class="cls-3" cx="45.7" cy="50.5" rx="29.3" ry="29.6"/><ellipse class="cls-4" cx="28" cy="50.5" rx="5.8" ry="5.9"/><circle class="cls-2" cx="28" cy="50.5" r="3.3"/><path class="cls-4" d="M54.5,54.8c.1,3.9-3.8,7.4-8.9,7.8s-9.1-2.2-9.2-6.1,3.8-7.3,8.8-7.8S54.4,50.9,54.5,54.8Z"/><path class="cls-5" d="M40.3,56.1a8.2,8.2,0,0,0,10.8-1.5"/><ellipse class="cls-4" cx="57.5" cy="42.6" rx="5.8" ry="5.9"/><circle class="cls-2" cx="57.5" cy="42.6" r="3.3"/></svg>