<svg xmlns="http://www.w3.org/2000/svg" xmlns:xlink="http://www.w3.org/1999/xlink" viewBox="0 0 150 95"><defs><style>.cls-1{fill:#e6e4e5;}.cls-2{fill:url(#linear-gradient);}.cls-3,.cls-5{fill:#f7438c;}.cls-3{stroke:#fff;stroke-miterlimit:10;stroke-width:2px;}.cls-4{fill:#fff;}</style><linearGradient id="linear-gradient" x1="5.94" y1="47.5" x2="144.06" y2="47.5" gradientUnits="userSpaceOnUse"><stop offset="0" stop-color="#fd79a8"/><stop offset="1" stop-color="#e6007e"/></linearGradient></defs><g id="pasmo"><rect class="cls-1" x="0.2" y="0.2" width="149.6" height="94.56" rx="9.4"/><path class="cls-2" d="M77.9,5.1H14.5a8.6,8.6,0,0,0-8.6,8.5V81.4a8.6,8.6,0,0,0,8.6,8.5h121a8.6,8.6,0,0,0,8.6-8.5V56.5Z"/><path class="cls-3" d="M56.9,34.3H48.7a1.9,1.9,0,0,1-1.9-1.5L43.7,18.7a1.8,1.8,0,0,1,.8-1.9,3,3,0,0,0,1.3-2.5,3.1,3.1,0,1,0-4.7,2.5,1.9,1.9,0,0,1,.7,1.9L38.7,32.8a1.8,1.8,0,0,1-1.8,1.5H27.6A10.5,10.5,0,0,0,17.1,44.8V69.6A10.5,10.5,0,0,0,27.6,80.1H56.9A10.4,10.4,0,0,0,67.3,69.6V44.8A10.4,10.4,0,0,0,56.9,34.3Z"/><rect class="cls-4" x="21.7" y="39.8" width="41.1" height="27.53" rx="4.9"/><path class="cls-5" d="M32.2,63.7c-3.6,0-6.4-4.3-6.4-9.9s2.8-9.9,6.4-9.9,6.4,4.3,6.4,9.9S35.8,63.7,32.2,63.7Zm0-17.3c-1.8,0-3.9,3.1-3.9,7.4s2.1,7.4,3.9,7.4,3.8-3,3.8-7.4S34,46.4,32.2,46.4Z"/><path class="cls-5" d="M28,56.4l-1.7-1.9C30,51.2,34.1,51,37.8,54l-1.6,2C33.5,53.8,30.8,53.9,28,56.4Z"/><path class="cls-4" d="M42.2,71.9a15.4,15.4,0,0,1-5-.8c-.4-.1-.7.8-.5,1.5a6.2,6.2,0,0,0,5.5,4.2,6.2,6.2,0,0,0,5.6-4.2c.2-.7-.1-1.6-.5-1.5A15.6,15.6,0,0,1,42.2,71.9Z"/><path class="cls-5" d="M52.3,63.7c-3.6,0-6.4-4.4-6.4-10s2.8-9.9,6.4-9.9,6.4,4.4,6.4,9.9S55.9,63.7,52.3,63.7Zm0-17.3c-1.8,0-3.9,3-3.9,7.3s2.1,7.4,3.9,7.4,3.8-3,3.8-7.4S54.1,46.4,52.3,46.4Z"/><path class="cls-5" d="M48.1,56.4l-1.7-1.9c3.7-3.4,7.8-3.6,11.5-.5l-1.6,1.9C53.5,53.7,50.9,53.8,48.1,56.4Z"/></g></svg>