<svg xmlns="http://www.w3.org/2000/svg" xmlns:xlink="http://www.w3.org/1999/xlink" viewBox="0 0 150 95"><defs><style>.cls-1{fill:#e6e4e5;}.cls-2{fill:#9ad4e8;}.cls-3{fill:url(#radial-gradient);}.cls-4{stroke:#e6e4e5;stroke-width:2px;fill:url(#linear-gradient);}.cls-4,.cls-6{stroke-miterlimit:10;}.cls-5{fill:#919191;}.cls-6,.cls-7{fill:#fff;}.cls-6,.cls-8{stroke:#919191;stroke-width:1.54px;}.cls-8{fill:none;stroke-linecap:round;stroke-linejoin:round;}</style><radialGradient id="radial-gradient" cx="55.19" cy="56.63" r="42.12" gradientUnits="userSpaceOnUse"><stop offset="0" stop-color="#009fe3"/><stop offset="1" stop-color="#36a9e1"/></radialGradient><linearGradient id="linear-gradient" x1="-1003.78" y1="103.34" x2="-970.99" y2="46.34" gradientTransform="matrix(-1, 0, 0, 1, -924.53, 0)" gradientUnits="userSpaceOnUse"><stop offset="0.17" stop-color="#f87f3f"/><stop offset="1" stop-color="#fddd6e"/></linearGradient></defs><g id="nimoca"><rect class="cls-1" x="0.2" y="0.4" width="149.6" height="94.56" rx="9.4"/><path class="cls-2" d="M77.9,5.2H14.5a8.5,8.5,0,0,0-8.6,8.6V81.5a8.5,8.5,0,0,0,8.6,8.6h121a8.5,8.5,0,0,0,8.5-8.6V56.6Z"/><path class="cls-3" d="M48,23.1a56.3,56.3,0,0,0-42.1,19V81.5a8.5,8.5,0,0,0,8.6,8.6h89a60.3,60.3,0,0,0,1-10.5A56.5,56.5,0,0,0,48,23.1Z"/><path class="cls-4" d="M71.9,89.8H30c1.5-4.7,6.8-17.5,8.7-23.6a4.6,4.6,0,0,0-1.5-5,23.3,23.3,0,0,1-8.4-18.1,21.5,21.5,0,0,1,1-6.8,1.8,1.8,0,0,0-.3-1.6c-2-2.3-4.7-6.3-3.1-7.9s6.6-1.7,9.9-1.5a1.5,1.5,0,0,0,1.1-.4,23.5,23.5,0,0,1,16.4-5.3,23.8,23.8,0,0,1,10.8,3.5,1.9,1.9,0,0,0,1.3.2c3-.9,8.3-2,8.6,0s-1.1,9.5-1.1,9.5h0a22,22,0,0,1,2.5,9.5,23.8,23.8,0,0,1-7.7,18.3,5.3,5.3,0,0,0-1.8,5.1c.4,2.2,1,5.1,1.5,8a1.6,1.6,0,0,0,2.3,1.1A19.9,19.9,0,0,0,77,69.1c4.7-5.9,4.6-8.9,8.7-17.1s7.4,1.5,2.6,13.3A78.7,78.7,0,0,1,71.9,89.8Z"/><path class="cls-5" d="M71.6,28.1a.8.8,0,0,0,1.2-.4c.3-1,.7-2.6-.4-2.8a11.3,11.3,0,0,0-2.6.1.8.8,0,0,0-.4,1.4Z"/><path class="cls-5" d="M32,27.6l-2.8.2a.9.9,0,0,0-.7,1l.8,3.1a.8.8,0,0,0,1.5.2l2-3.3A.8.8,0,0,0,32,27.6Z"/><path class="cls-6" d="M67.9,43.9c.6-4.1-.9-7.6-3.3-8s-4.8,2.7-5.4,6.7.9,7.7,3.3,8S67.3,47.9,67.9,43.9Z"/><path class="cls-5" d="M65.2,43.6c.3-2.6-.6-4.9-2.1-5.1s-3.1,1.7-3.5,4.3.6,4.8,2.1,5.1S64.8,46.2,65.2,43.6Z"/><path class="cls-7" d="M64.7,40.4a2.3,2.3,0,0,0-1.6-2.5,2.2,2.2,0,0,0-2.2,2,2,2,0,0,0,1.6,2.4A2.1,2.1,0,0,0,64.7,40.4Z"/><line class="cls-8" x1="67" y1="31.6" x2="65.6" y2="36.4"/><line class="cls-8" x1="63" y1="31" x2="63.5" y2="36"/><path class="cls-5" d="M51.7,55.6l-2.2-1.2a.8.8,0,0,1,.4-1.5h4.3a.8.8,0,0,1,.4,1.5l-2.1,1.3A.6.6,0,0,1,51.7,55.6Z"/><ellipse class="cls-6" cx="40.6" cy="43.5" rx="4.4" ry="7.4" transform="translate(-6.1 6.6) rotate(-8.6)"/><path class="cls-5" d="M42.2,43.3c-.4-2.5-2-4.5-3.5-4.2s-2.4,2.5-2.1,5.1,2,4.5,3.5,4.2S42.6,45.9,42.2,43.3Z"/><path class="cls-7" d="M40.8,40.4a2.1,2.1,0,0,0-2.2-1.9A2.1,2.1,0,0,0,37.1,41a1.9,1.9,0,1,0,3.7-.6Z"/><line class="cls-8" x1="40.5" y1="31.3" x2="40.6" y2="36.3"/><line class="cls-8" x1="36.5" y1="32" x2="38.4" y2="36.5"/></g></svg>