<svg xmlns="http://www.w3.org/2000/svg" xmlns:xlink="http://www.w3.org/1999/xlink" viewBox="0 0 150 95"><defs><style>.cls-1{fill:#e6e4e5;}.cls-2{fill:url(#linear-gradient);}.cls-3,.cls-4{fill:none;stroke:#878787;stroke-width:2px;}.cls-3{stroke-linecap:round;stroke-linejoin:round;}.cls-4{stroke-miterlimit:10;}.cls-5{fill:#878787;}</style><linearGradient id="linear-gradient" x1="5.94" y1="47.62" x2="144.06" y2="47.62" gradientUnits="userSpaceOnUse"><stop offset="0" stop-color="#ffde00"/><stop offset="0.36" stop-color="#fcc918"/><stop offset="0.74" stop-color="#fab82c"/><stop offset="1" stop-color="#f9b233"/></linearGradient></defs><g id="manaca"><rect class="cls-1" x="0.2" y="0.3" width="149.6" height="94.56" rx="9.4"/><path class="cls-2" d="M77.9,5.2H14.5a8.6,8.6,0,0,0-8.6,8.5V81.5a8.7,8.7,0,0,0,8.6,8.6h121a8.7,8.7,0,0,0,8.6-8.6V56.6Z"/><path class="cls-3" d="M65.2,64.8,61.3,54.3a2.6,2.6,0,0,1,2.5-3.2l10,.6"/><path class="cls-3" d="M28.1,64.8,32,54.3a2.6,2.6,0,0,0-2.5-3.2l-10.1.6"/><path class="cls-3" d="M39.2,44.3s6.4,5.3,15.3,0"/><circle class="cls-4" cx="45.6" cy="51" r="31.9"/><circle class="cls-5" cx="40" cy="36.2" r="1.5"/><circle class="cls-5" cx="53.6" cy="36.2" r="1.5"/></g></svg>