<svg xmlns="http://www.w3.org/2000/svg" xmlns:xlink="http://www.w3.org/1999/xlink" viewBox="0 0 150 95"><defs><style>.cls-1{fill:#e6e4e5;}.cls-2{fill:#f9b233;}.cls-3{fill:#56cc35;}.cls-10,.cls-3,.cls-8,.cls-9{stroke:#e6e4e5;}.cls-3,.cls-4,.cls-6,.cls-8,.cls-9{stroke-miterlimit:10;}.cls-3,.cls-4,.cls-7{stroke-width:2.22px;}.cls-12,.cls-4,.cls-6{fill:#fff;}.cls-4,.cls-7{stroke:#878787;}.cls-5{fill:#878787;}.cls-6{stroke:#fff;stroke-width:2.88px;}.cls-10,.cls-7{fill:none;stroke-linecap:round;stroke-linejoin:round;}.cls-10,.cls-8,.cls-9{stroke-width:1.68px;}.cls-8{fill:url(#linear-gradient);}.cls-9{fill:url(#linear-gradient-2);}.cls-11{fill:#ff2a00;}</style><linearGradient id="linear-gradient" x1="56.83" y1="-254.25" x2="61.79" y2="-254.25" gradientTransform="translate(-7.2 288.2) rotate(12.9)" gradientUnits="userSpaceOnUse"><stop offset="0" stop-color="#d3cd1f"/><stop offset="1" stop-color="#56cc35"/></linearGradient><linearGradient id="linear-gradient-2" x1="65.29" y1="-254.25" x2="71.95" y2="-254.25" xlink:href="#linear-gradient"/></defs><g id="sugoca"><rect class="cls-1" x="0.4" y="-0.1" width="149.6" height="94.98" rx="9.4"/><path class="cls-2" d="M78.1,4.8H14.7a8.6,8.6,0,0,0-8.6,8.6v68A8.6,8.6,0,0,0,14.7,90h121a8.6,8.6,0,0,0,8.6-8.6v-25Z"/><path class="cls-3" d="M73,85.6H27.5A11.5,11.5,0,0,1,16,75c-1-14.3,3.8-38.6,11.9-43.1s11,13.9,22.3,13.5S63.7,26.9,72.5,31.9s12,42.2,12,42.2A11.5,11.5,0,0,1,73,85.6Z"/><path class="cls-4" d="M27.3,59.2c0-6.3,3-11.4,6.8-11.4s6.7,5.1,6.7,11.4-3,11.3-6.7,11.3S27.3,65.4,27.3,59.2Z"/><path class="cls-5" d="M32.6,60.5c0-3.3,1.5-5.9,3.5-5.9s3.5,2.6,3.5,5.9-1.6,5.9-3.5,5.9S32.6,63.8,32.6,60.5Z"/><path class="cls-6" d="M33.3,55.7A1.6,1.6,0,0,1,35,54a1.7,1.7,0,0,1,1.7,1.7A1.8,1.8,0,0,1,35,57.4,1.7,1.7,0,0,1,33.3,55.7Z"/><path class="cls-7" d="M42.3,75.8s5.4,2.7,9.6,2.7,9.7-2.7,9.7-2.7"/><path class="cls-4" d="M61.6,59.2c0-6.3,3-11.4,6.7-11.4s6.8,5.1,6.8,11.4-3,11.3-6.8,11.3S61.6,65.4,61.6,59.2Z"/><path class="cls-5" d="M66.9,60.5c0-3.3,1.5-5.9,3.5-5.9s3.5,2.6,3.5,5.9-1.6,5.9-3.5,5.9S66.9,63.8,66.9,60.5Z"/><path class="cls-6" d="M67.6,55.7A1.6,1.6,0,0,1,69.3,54,1.7,1.7,0,0,1,71,55.7a1.8,1.8,0,0,1-1.7,1.7A1.7,1.7,0,0,1,67.6,55.7Z"/><path class="cls-8" d="M109.7,54.1c-.2,1-1.5,1.6-2.8,1.3a2.3,2.3,0,0,1-2-2.4c.2-1,1.5-1.6,2.8-1.3S110,53.1,109.7,54.1Z"/><path class="cls-9" d="M119.6,56.4c-.2,1-1.8,1.5-3.6,1.1s-3.1-1.6-2.9-2.6,1.9-1.5,3.7-1.1S119.9,55.4,119.6,56.4Z"/><line class="cls-10" x1="113.1" y1="54.9" x2="109.7" y2="54.1"/><line class="cls-10" x1="111.4" y1="54.5" x2="110" y2="61"/><ellipse class="cls-11" cx="108.8" cy="72.1" rx="13.3" ry="15.1" transform="matrix(0.22, -0.97, 0.97, 0.22, 14.32, 162.08)"/><path class="cls-1" d="M107.8,58.2v2a14.7,14.7,0,0,1,3.6.4,15,15,0,0,1,9,5.7,11.3,11.3,0,0,1,2.1,9.1c-1.2,5.2-6.4,8.9-12.7,8.9a23.3,23.3,0,0,1-3.7-.4c-7.5-1.8-12.5-8.4-11-14.8s6.4-8.9,12.7-8.9v-2m0,0c-7.1,0-13.2,4.1-14.7,10.5S97,83.8,105.7,85.8a19.2,19.2,0,0,0,4.1.5c7,0,13.2-4.2,14.6-10.5s-3.9-15.2-12.5-17.2a19.6,19.6,0,0,0-4.1-.4Z"/><path class="cls-5" d="M106.1,70.7a3,3,0,0,1-3.4,2.5,3.1,3.1,0,0,1-2.1-3.7,3.1,3.1,0,0,1,3.5-2.5A3,3,0,0,1,106.1,70.7Z"/><path class="cls-12" d="M101.5,69.2a1.5,1.5,0,0,1,.9-1.7,1.5,1.5,0,0,1,2,.2,1.4,1.4,0,0,1-.9,1.8C102.7,69.9,101.8,69.8,101.5,69.2Z"/><path class="cls-5" d="M116.3,73a2.8,2.8,0,1,1-2-3.7A2.9,2.9,0,0,1,116.3,73Z"/><path class="cls-12" d="M111.7,71.5a1.4,1.4,0,0,1,.9-1.8,1.6,1.6,0,0,1,2,.3,1.4,1.4,0,0,1-.9,1.8C112.9,72.2,112,72.1,111.7,71.5Z"/></g></svg>