<?xml version="1.0" encoding="utf-8"?>
<!-- Generator: Adobe Illustrator 26.3.1, SVG Export Plug-In . SVG Version: 6.00 Build 0)  -->
<svg version="1.1" id="Layer_1" xmlns="http://www.w3.org/2000/svg" xmlns:xlink="http://www.w3.org/1999/xlink" x="0px" y="0px"
	 viewBox="0 0 180 52" style="enable-background:new 0 0 180 52;" xml:space="preserve">
<style type="text/css">
	.st0{fill:#E54893;}
	.st1{fill:#FFFFFF;}
</style>
<path class="st0" d="M179,46c0,2.8-2.3,5-5.1,5H6.1C3.3,51,1,48.8,1,46V6c0-2.8,2.3-5,5.1-5h167.7c2.8,0,5.1,2.3,5.1,5L179,46z"/>
<path class="st1" d="M173.3,1c3.1,0,5.6,2.4,5.6,5.5v39c0,3-2.5,5.5-5.6,5.5H6.7c-3.1,0-5.6-2.4-5.6-5.5v-39c0-3,2.5-5.5,5.6-5.5
	H173.3z M173.3,0H6.7C3,0,0,2.9,0,6.5v39C0,49.1,3,52,6.7,52h166.7c3.7,0,6.7-2.9,6.7-6.5v-39C180,2.9,177,0,173.3,0z"/>
<path class="st1" d="M40.2,25.7c0-4.2,3.5-6.2,3.7-6.3c-2-2.9-5.1-3.3-6.2-3.3c-2.6-0.3-5.2,1.5-6.5,1.5c-1.4,0-3.4-1.5-5.6-1.5
	c-2.9,0-5.5,1.7-7,4.2c-3,5.1-0.8,12.6,2.1,16.7c1.4,2,3.1,4.3,5.4,4.2c2.2-0.1,3-1.3,5.6-1.3c2.6,0,3.4,1.3,5.6,1.3
	c2.3,0,3.8-2,5.2-4.1c1.7-2.3,2.3-4.6,2.4-4.7C44.7,32.4,40.2,30.7,40.2,25.7z"/>
<path class="st1" d="M35.9,13.4c1.2-1.4,2-3.4,1.7-5.3c-1.7,0.1-3.8,1.1-5,2.5c-1.1,1.2-2,3.2-1.8,5.1
	C32.7,15.9,34.7,14.8,35.9,13.4z"/>
<path class="st1" d="M71.5,41h-3l-1.7-5.1h-5.8L59.5,41h-2.9l5.7-17.3h3.5L71.5,41z M66.3,33.7l-1.5-4.5c-0.2-0.5-0.5-1.5-0.9-3.3
	h-0.1c-0.2,0.7-0.5,1.8-0.8,3.3l-1.5,4.5H66.3z"/>
<path class="st1" d="M86.2,34.6c0,2.1-0.6,3.8-1.8,5c-1.1,1.1-2.4,1.6-3.9,1.6c-1.7,0-2.9-0.6-3.6-1.8h-0.1V46H74V32.6
	c0-1.3,0-2.7-0.1-4.1h2.5l0.2,2h0.1c0.9-1.5,2.4-2.2,4.3-2.2c1.5,0,2.8,0.6,3.8,1.7C85.7,31.1,86.2,32.7,86.2,34.6z M83.3,34.7
	c0-1.2-0.3-2.2-0.8-3c-0.6-0.8-1.4-1.2-2.5-1.2c-0.7,0-1.3,0.2-1.9,0.7c-0.6,0.5-0.9,1-1.1,1.8c-0.1,0.3-0.1,0.6-0.1,0.8v2.1
	c0,0.9,0.3,1.7,0.9,2.3c0.6,0.6,1.3,0.9,2.2,0.9c1.1,0,1.9-0.4,2.5-1.2C83,37,83.3,36,83.3,34.7z"/>
<path class="st1" d="M100.9,34.6c0,2.1-0.6,3.8-1.8,5c-1.1,1.1-2.4,1.6-3.9,1.6c-1.7,0-2.9-0.6-3.6-1.8h-0.1V46h-2.8V32.6
	c0-1.3,0-2.7-0.1-4.1h2.5l0.2,2h0.1c0.9-1.5,2.4-2.2,4.3-2.2c1.5,0,2.8,0.6,3.8,1.7C100.4,31.1,100.9,32.7,100.9,34.6z M98,34.7
	c0-1.2-0.3-2.2-0.8-3c-0.6-0.8-1.4-1.2-2.5-1.2c-0.7,0-1.3,0.2-1.9,0.7c-0.6,0.5-0.9,1-1.1,1.8c-0.1,0.3-0.1,0.6-0.1,0.8v2.1
	c0,0.9,0.3,1.7,0.9,2.3c0.6,0.6,1.3,0.9,2.2,0.9c1.1,0,1.9-0.4,2.5-1.2C97.7,37,98,36,98,34.7z"/>
<path class="st1" d="M117.4,36.1c0,1.5-0.5,2.7-1.6,3.6c-1.2,1-2.8,1.5-4.8,1.5c-1.9,0-3.4-0.4-4.6-1.1l0.7-2.3
	c1.2,0.7,2.6,1.1,4.1,1.1c1.1,0,1.9-0.2,2.5-0.7c0.6-0.5,0.9-1.1,0.9-1.9c0-0.7-0.2-1.3-0.7-1.8c-0.5-0.5-1.3-0.9-2.4-1.3
	c-3.1-1.1-4.7-2.8-4.7-5c0-1.4,0.5-2.6,1.6-3.5c1.1-0.9,2.5-1.4,4.3-1.4c1.6,0,3,0.3,4,0.8l-0.7,2.3c-1-0.5-2.1-0.8-3.4-0.8
	c-1,0-1.8,0.2-2.3,0.7c-0.5,0.4-0.7,0.9-0.7,1.6c0,0.7,0.3,1.2,0.8,1.7c0.5,0.4,1.3,0.9,2.6,1.3c1.5,0.6,2.6,1.3,3.4,2.1
	C117,33.9,117.4,34.9,117.4,36.1z"/>
<path class="st1" d="M126.8,30.6h-3.1v6.1c0,1.5,0.6,2.3,1.7,2.3c0.5,0,0.9,0,1.3-0.1l0.1,2.1c-0.6,0.2-1.3,0.3-2.2,0.3
	c-1.1,0-2-0.3-2.6-1c-0.6-0.7-0.9-1.8-0.9-3.4v-6.3H119v-2.1h1.9v-2.3l2.8-0.8v3.1h3.1V30.6z"/>
<path class="st1" d="M140.9,34.6c0,1.9-0.6,3.5-1.7,4.7c-1.2,1.3-2.7,1.9-4.7,1.9c-1.9,0-3.4-0.6-4.5-1.8c-1.1-1.2-1.7-2.7-1.7-4.6
	c0-1.9,0.6-3.5,1.7-4.7c1.1-1.2,2.7-1.8,4.6-1.8c1.9,0,3.4,0.6,4.5,1.8C140.4,31.2,140.9,32.7,140.9,34.6z M138,34.7
	c0-1.2-0.3-2.1-0.8-3c-0.6-1-1.4-1.5-2.6-1.5c-1.1,0-2,0.5-2.6,1.5c-0.5,0.8-0.8,1.8-0.8,3c0,1.2,0.3,2.1,0.8,3
	c0.6,1,1.5,1.5,2.6,1.5c1.1,0,1.9-0.5,2.6-1.5C137.7,36.9,138,35.9,138,34.7z"/>
<path class="st1" d="M150.2,30.9c-0.3-0.1-0.6-0.1-0.9-0.1c-1,0-1.8,0.4-2.3,1.1c-0.5,0.6-0.7,1.5-0.7,2.5V41h-2.8l0-8.5
	c0-1.4,0-2.7-0.1-3.9h2.5l0.1,2.4h0.1c0.3-0.8,0.8-1.5,1.4-2c0.6-0.4,1.3-0.7,2.1-0.7c0.3,0,0.5,0,0.7,0.1V30.9z"/>
<path class="st1" d="M162.9,34.1c0,0.5,0,0.9-0.1,1.3h-8.5c0,1.2,0.4,2.2,1.2,2.8c0.7,0.6,1.6,0.9,2.8,0.9c1.3,0,2.4-0.2,3.5-0.6
	l0.4,1.9c-1.2,0.5-2.6,0.8-4.3,0.8c-2,0-3.5-0.6-4.7-1.7c-1.1-1.1-1.7-2.7-1.7-4.6c0-1.9,0.5-3.4,1.6-4.7c1.1-1.3,2.6-2,4.5-2
	c1.8,0,3.2,0.7,4.2,2C162.5,31.3,162.9,32.6,162.9,34.1z M160.2,33.4c0-0.8-0.2-1.5-0.6-2.1c-0.5-0.8-1.2-1.2-2.3-1.2
	c-0.9,0-1.7,0.4-2.3,1.1c-0.5,0.6-0.8,1.3-0.8,2.2L160.2,33.4L160.2,33.4z"/>
<path class="st1" d="M65.4,13c0,1.5-0.5,2.7-1.4,3.5c-0.9,0.7-2.1,1.1-3.7,1.1c-0.8,0-1.5,0-2-0.1V9.1C59,9,59.8,8.9,60.6,8.9
	c1.5,0,2.7,0.3,3.5,1C65,10.6,65.4,11.6,65.4,13z M63.9,13c0-1-0.3-1.8-0.8-2.3c-0.5-0.5-1.3-0.8-2.4-0.8c-0.4,0-0.8,0-1.1,0.1v6.4
	c0.2,0,0.5,0,0.9,0c1.1,0,1.9-0.3,2.5-0.9C63.6,15,63.9,14.2,63.9,13z"/>
<path class="st1" d="M73.2,14.3c0,0.9-0.3,1.7-0.8,2.3c-0.6,0.6-1.3,0.9-2.3,0.9c-0.9,0-1.7-0.3-2.2-0.9c-0.5-0.6-0.8-1.3-0.8-2.3
	c0-0.9,0.3-1.7,0.8-2.3c0.6-0.6,1.3-0.9,2.3-0.9c0.9,0,1.7,0.3,2.2,0.9C72.9,12.7,73.2,13.4,73.2,14.3z M71.8,14.4
	c0-0.6-0.1-1.1-0.4-1.5c-0.3-0.5-0.7-0.7-1.3-0.7c-0.6,0-1,0.2-1.3,0.7c-0.3,0.4-0.4,0.9-0.4,1.5c0,0.6,0.1,1.1,0.4,1.5
	c0.3,0.5,0.7,0.7,1.3,0.7c0.5,0,1-0.2,1.3-0.7C71.6,15.4,71.8,15,71.8,14.4z"/>
<path class="st1" d="M83.7,11.3l-2,6.1h-1.3l-0.8-2.7c-0.2-0.7-0.4-1.3-0.5-2h0c-0.1,0.7-0.3,1.3-0.5,2l-0.9,2.7h-1.3l-1.8-6.1H76
	l0.7,2.9c0.2,0.7,0.3,1.3,0.4,2h0c0.1-0.5,0.3-1.2,0.5-2l0.9-2.9h1.1l0.9,2.9c0.2,0.7,0.4,1.4,0.5,2h0c0.1-0.6,0.2-1.3,0.4-2
	l0.8-2.9L83.7,11.3L83.7,11.3z"/>
<path class="st1" d="M90.9,17.5h-1.4V14c0-1.1-0.4-1.6-1.3-1.6c-0.4,0-0.7,0.1-1,0.4c-0.3,0.3-0.4,0.6-0.4,1.1v3.6h-1.4v-4.4
	c0-0.5,0-1.1-0.1-1.8h1.2l0.1,1h0c0.2-0.3,0.4-0.5,0.7-0.7c0.4-0.2,0.8-0.3,1.3-0.3c0.6,0,1.1,0.2,1.5,0.6c0.5,0.5,0.7,1.1,0.7,2
	V17.5z"/>
<path class="st1" d="M94.8,17.5h-1.4V8.5h1.4V17.5z"/>
<path class="st1" d="M103,14.3c0,0.9-0.3,1.7-0.8,2.3c-0.6,0.6-1.3,0.9-2.3,0.9c-0.9,0-1.7-0.3-2.2-0.9c-0.5-0.6-0.8-1.3-0.8-2.3
	c0-0.9,0.3-1.7,0.8-2.3c0.6-0.6,1.3-0.9,2.3-0.9c0.9,0,1.7,0.3,2.2,0.9C102.7,12.7,103,13.4,103,14.3z M101.6,14.4
	c0-0.6-0.1-1.1-0.4-1.5c-0.3-0.5-0.7-0.7-1.3-0.7c-0.6,0-1,0.2-1.3,0.7c-0.3,0.4-0.4,0.9-0.4,1.5c0,0.6,0.1,1.1,0.4,1.5
	c0.3,0.5,0.7,0.7,1.3,0.7c0.5,0,1-0.2,1.3-0.7C101.4,15.4,101.6,15,101.6,14.4z"/>
<path class="st1" d="M109.8,17.5h-1.3l-0.1-0.7h0c-0.4,0.6-1,0.8-1.8,0.8c-0.6,0-1.1-0.2-1.4-0.6c-0.3-0.3-0.5-0.8-0.5-1.2
	c0-0.7,0.3-1.3,1-1.7c0.6-0.4,1.5-0.6,2.7-0.6v-0.1c0-0.8-0.4-1.2-1.3-1.2c-0.6,0-1.2,0.2-1.6,0.5l-0.3-0.9c0.6-0.4,1.3-0.5,2.2-0.5
	c1.6,0,2.5,0.8,2.5,2.5V16C109.7,16.6,109.7,17.1,109.8,17.5z M108.3,15.4v-0.9c-1.5,0-2.3,0.4-2.3,1.2c0,0.3,0.1,0.6,0.3,0.7
	s0.4,0.2,0.7,0.2c0.3,0,0.6-0.1,0.9-0.3c0.3-0.2,0.4-0.4,0.5-0.7C108.3,15.5,108.3,15.4,108.3,15.4z"/>
<path class="st1" d="M117.7,17.5h-1.2l-0.1-1h0c-0.4,0.7-1.1,1.1-2,1.1c-0.8,0-1.4-0.3-1.9-0.9s-0.8-1.3-0.8-2.3
	c0-1,0.3-1.8,0.8-2.4c0.5-0.6,1.2-0.9,1.9-0.9c0.8,0,1.4,0.3,1.8,0.8h0V8.5h1.4v7.3C117.7,16.4,117.7,17,117.7,17.5z M116.3,14.9v-1
	c0-0.2,0-0.3,0-0.4c-0.1-0.3-0.2-0.6-0.5-0.8c-0.3-0.2-0.6-0.3-0.9-0.3c-0.5,0-0.9,0.2-1.2,0.6c-0.3,0.4-0.4,0.9-0.4,1.6
	c0,0.6,0.1,1.1,0.4,1.5c0.3,0.4,0.7,0.6,1.2,0.6c0.5,0,0.8-0.2,1.1-0.5C116.1,15.7,116.3,15.3,116.3,14.9z"/>
<path class="st1" d="M129.7,14.3c0,0.9-0.3,1.7-0.8,2.3c-0.6,0.6-1.3,0.9-2.3,0.9c-0.9,0-1.7-0.3-2.2-0.9c-0.5-0.6-0.8-1.3-0.8-2.3
	c0-0.9,0.3-1.7,0.8-2.3c0.6-0.6,1.3-0.9,2.3-0.9c0.9,0,1.7,0.3,2.2,0.9C129.4,12.7,129.7,13.4,129.7,14.3z M128.2,14.4
	c0-0.6-0.1-1.1-0.4-1.5c-0.3-0.5-0.7-0.7-1.3-0.7c-0.6,0-1,0.2-1.3,0.7c-0.2,0.4-0.4,0.9-0.4,1.5c0,0.6,0.1,1.1,0.4,1.5
	c0.3,0.5,0.7,0.7,1.3,0.7c0.5,0,1-0.2,1.3-0.7C128.1,15.4,128.2,15,128.2,14.4z"/>
<path class="st1" d="M137.2,17.5h-1.4V14c0-1.1-0.4-1.6-1.3-1.6c-0.4,0-0.7,0.1-1,0.4c-0.3,0.3-0.4,0.6-0.4,1.1v3.6h-1.4v-4.4
	c0-0.5,0-1.1,0-1.8h1.2l0.1,1h0c0.2-0.3,0.4-0.5,0.7-0.7c0.4-0.2,0.8-0.3,1.3-0.3c0.6,0,1.1,0.2,1.5,0.6c0.5,0.5,0.7,1.1,0.7,2V17.5
	z"/>
<path class="st1" d="M146.6,12.4H145v3c0,0.8,0.3,1.1,0.8,1.1c0.3,0,0.5,0,0.6-0.1l0,1c-0.3,0.1-0.6,0.2-1.1,0.2
	c-0.6,0-1-0.2-1.3-0.5c-0.3-0.3-0.5-0.9-0.5-1.7v-3.1h-0.9v-1h0.9v-1.1l1.4-0.4v1.5h1.5L146.6,12.4L146.6,12.4z"/>
<path class="st1" d="M154,17.5h-1.4V14c0-1.1-0.4-1.6-1.3-1.6c-0.6,0-1.1,0.3-1.3,1c0,0.1-0.1,0.3-0.1,0.5v3.7h-1.4V8.5h1.4v3.7h0
	c0.4-0.7,1.1-1,1.9-1c0.6,0,1.1,0.2,1.4,0.6c0.5,0.5,0.7,1.1,0.7,2.1V17.5z"/>
<path class="st1" d="M161.6,14.1c0,0.2,0,0.4-0.1,0.6h-4.2c0,0.6,0.2,1.1,0.6,1.4c0.4,0.3,0.8,0.4,1.4,0.4c0.6,0,1.2-0.1,1.7-0.3
	l0.2,0.9c-0.6,0.3-1.3,0.4-2.1,0.4c-1,0-1.7-0.3-2.3-0.8c-0.6-0.6-0.8-1.3-0.8-2.3c0-0.9,0.3-1.7,0.8-2.3c0.5-0.7,1.3-1,2.2-1
	c0.9,0,1.6,0.3,2.1,1C161.4,12.7,161.6,13.3,161.6,14.1z M160.3,13.8c0-0.4-0.1-0.8-0.3-1c-0.2-0.4-0.6-0.6-1.1-0.6
	c-0.5,0-0.8,0.2-1.1,0.6c-0.2,0.3-0.4,0.6-0.4,1.1H160.3z"/>
</svg>
