<svg id="Layer_1" data-name="Layer 1" xmlns="http://www.w3.org/2000/svg" xmlns:xlink="http://www.w3.org/1999/xlink" viewBox="0 0 276.69 57.13"><defs><style>.cls-1,.cls-2,.cls-3,.cls-4,.cls-5,.cls-6{fill:none;stroke-width:5px;}.cls-1,.cls-2,.cls-3,.cls-4,.cls-5{stroke-miterlimit:10;}.cls-1{stroke:url(#linear-gradient);}.cls-2{stroke:url(#linear-gradient-2);}.cls-3{stroke:url(#linear-gradient-3);}.cls-4{stroke:url(#linear-gradient-6);}.cls-5{stroke:url(#linear-gradient-7);}.cls-6{stroke-linejoin:round;stroke:url(#linear-gradient-8);}.cls-7{fill:#fff;}</style><linearGradient id="linear-gradient" x1="63.25" y1="19.22" x2="63.25" y2="19.22" gradientUnits="userSpaceOnUse"><stop offset="0" stop-color="#fccb6f"/><stop offset="0.27" stop-color="#fdd892"/><stop offset="0.86" stop-color="#fff7e9"/><stop offset="1" stop-color="#fff"/></linearGradient><linearGradient id="linear-gradient-2" x1="33.49" y1="-26.34" x2="33.49" y2="-26.34" xlink:href="#linear-gradient"/><linearGradient id="linear-gradient-3" x1="63.25" y1="-9.16" x2="63.25" y2="-9.16" xlink:href="#linear-gradient"/><linearGradient id="linear-gradient-6" x1="2.26" y1="7.79" x2="15.29" y2="7.79" xlink:href="#linear-gradient"/><linearGradient id="linear-gradient-7" x1="85" y1="19.22" x2="85" y2="19.22" xlink:href="#linear-gradient"/><linearGradient id="linear-gradient-8" x1="1.71" y1="30.32" x2="58.29" y2="30.32" xlink:href="#linear-gradient"/></defs><path class="cls-1" d="M63.25,19.22" transform="translate(-1.71 -1.76)"/><path class="cls-2" d="M33.49-26.34" transform="translate(-1.71 -1.76)"/><path class="cls-3" d="M63.25-9.16" transform="translate(-1.71 -1.76)"/><path class="cls-1" d="M63.25,19.22" transform="translate(-1.71 -1.76)"/><path class="cls-3" d="M63.25-9.16" transform="translate(-1.71 -1.76)"/><circle class="cls-4" cx="8.77" cy="7.79" r="4.02"/><path class="cls-5" d="M85,19.22" transform="translate(-1.71 -1.76)"/><path class="cls-6" d="M11.87,53.2H4.21V20.53H16.55V37.81c0,10.19,8.85,18.58,19.62,18.58S55.79,48,55.79,37.81H47a10.88,10.88,0,0,1-21.75,0V23.61a10.88,10.88,0,0,1,21.75,0h8.75C55.79,13,48,4.26,38.61,4.26" transform="translate(-1.71 -1.76)"/><path class="cls-7" d="M73.79,50.21a2.21,2.21,0,0,1-.66-1.63V17.45a2.3,2.3,0,0,1,.66-1.65,2.16,2.16,0,0,1,1.63-.69H87.27q6.92,0,10.38,2.85a9.21,9.21,0,0,1,3.46,7.48A9.78,9.78,0,0,1,99.41,31a9.53,9.53,0,0,1-5,3.64,7,7,0,0,1,5,4.55,20.12,20.12,0,0,1,1.34,7v2.33a2.25,2.25,0,0,1-2.28,2.29,2.31,2.31,0,0,1-1.71-.63,2.27,2.27,0,0,1-.63-1.66V47.06a23.08,23.08,0,0,0-.46-4.71,7.59,7.59,0,0,0-2.19-3.86,7.17,7.17,0,0,0-5.24-1.71H77.76v11.8a2.16,2.16,0,0,1-.69,1.63,2.29,2.29,0,0,1-1.65.66A2.21,2.21,0,0,1,73.79,50.21ZM87,32.41a12.29,12.29,0,0,0,6.94-1.73,5.56,5.56,0,0,0,2.57-4.89,5.48,5.48,0,0,0-2.21-4.68q-2.22-1.62-7.56-1.62H77.76V32.41Z" transform="translate(-1.71 -1.76)"/><path class="cls-7" d="M110,50a2.21,2.21,0,0,1-.66-1.63V17.45A2.3,2.3,0,0,1,110,15.8a2.18,2.18,0,0,1,1.63-.69H132a2.08,2.08,0,0,1,1.55.64,2.12,2.12,0,0,1,.64,1.55,2.06,2.06,0,0,1-.64,1.53,2.18,2.18,0,0,1-1.55.61H114V30.68h16.23a2.17,2.17,0,0,1,2.19,2.19,2,2,0,0,1-.64,1.52,2.15,2.15,0,0,1-1.55.61H114V46.3H132a2.11,2.11,0,0,1,1.55.63,2.14,2.14,0,0,1,.64,1.55,2.06,2.06,0,0,1-.64,1.53,2.13,2.13,0,0,1-1.55.61h-20.4A2.23,2.23,0,0,1,110,50Z" transform="translate(-1.71 -1.76)"/><path class="cls-7" d="M140.05,50.21a2.26,2.26,0,0,1-.63-1.63,2.68,2.68,0,0,1,.25-1l13-30.63a3.82,3.82,0,0,1,1.15-1.5,2.8,2.8,0,0,1,1.8-.58h.51a2.82,2.82,0,0,1,1.81.58,3.89,3.89,0,0,1,1.14,1.5l13,30.63a2.73,2.73,0,0,1,.26,1,2.23,2.23,0,0,1-.64,1.63,2.18,2.18,0,0,1-1.65.66,2.28,2.28,0,0,1-1.3-.38,2.38,2.38,0,0,1-.89-1l-3.31-7.94H147.2l-3.31,7.94a2.38,2.38,0,0,1-.89,1,2.28,2.28,0,0,1-1.3.38A2.21,2.21,0,0,1,140.05,50.21ZM149,37.29h13.73l-6.86-16.53Z" transform="translate(-1.71 -1.76)"/><path class="cls-7" d="M180.42,50a2.21,2.21,0,0,1-.66-1.63V17.45a2.3,2.3,0,0,1,.66-1.65,2.15,2.15,0,0,1,1.62-.69h10.23a18,18,0,0,1,9.84,2.57,16.48,16.48,0,0,1,6.08,6.64,18.92,18.92,0,0,1,0,17.09,16.42,16.42,0,0,1-6.08,6.64,18,18,0,0,1-9.84,2.57H182A2.2,2.2,0,0,1,180.42,50Zm11.29-3.66A15.17,15.17,0,0,0,199,44.59a12.08,12.08,0,0,0,4.88-4.73,13.88,13.88,0,0,0,1.73-7,13.89,13.89,0,0,0-1.73-7A12.15,12.15,0,0,0,199,21.14a15.17,15.17,0,0,0-7.33-1.7h-7.33V46.3Z" transform="translate(-1.71 -1.76)"/><path class="cls-7" d="M218.62,50a2.21,2.21,0,0,1-.66-1.63V17.45a2.3,2.3,0,0,1,.66-1.65,2.16,2.16,0,0,1,1.63-.69h20.4a2.08,2.08,0,0,1,1.55.64,2.12,2.12,0,0,1,.64,1.55,2.06,2.06,0,0,1-.64,1.53,2.18,2.18,0,0,1-1.55.61H222.59V30.68h16.23A2.15,2.15,0,0,1,241,32.87a2,2,0,0,1-.63,1.52,2.15,2.15,0,0,1-1.55.61H222.59V46.3h18.06a2.11,2.11,0,0,1,1.55.63,2.14,2.14,0,0,1,.64,1.55A2.06,2.06,0,0,1,242.2,50a2.13,2.13,0,0,1-1.55.61h-20.4A2.21,2.21,0,0,1,218.62,50Z" transform="translate(-1.71 -1.76)"/><path class="cls-7" d="M251.08,50.21a2.17,2.17,0,0,1-.66-1.63V17.45a2.26,2.26,0,0,1,.66-1.65,2.15,2.15,0,0,1,1.62-.69h11.86q6.92,0,10.38,2.85a9.23,9.23,0,0,1,3.45,7.48,9.7,9.7,0,0,1-1.7,5.57,9.53,9.53,0,0,1-5,3.64,7,7,0,0,1,5,4.55,19.92,19.92,0,0,1,1.35,7v2.33a2.25,2.25,0,0,1-2.29,2.29,2.3,2.3,0,0,1-1.7-.63,2.24,2.24,0,0,1-.64-1.66V47.06a22.4,22.4,0,0,0-.46-4.71,7.45,7.45,0,0,0-2.19-3.86,7.14,7.14,0,0,0-5.23-1.71H255v11.8a2.15,2.15,0,0,1-.68,1.63,2.31,2.31,0,0,1-1.66.66A2.2,2.2,0,0,1,251.08,50.21Zm13.17-17.8a12.33,12.33,0,0,0,6.95-1.73,5.56,5.56,0,0,0,2.57-4.89,5.46,5.46,0,0,0-2.22-4.68q-2.21-1.62-7.55-1.62h-9V32.41Z" transform="translate(-1.71 -1.76)"/></svg>