<svg id="Layer_1" data-name="Layer 1" xmlns="http://www.w3.org/2000/svg" xmlns:xlink="http://www.w3.org/1999/xlink" viewBox="0 0 150 94"><defs><style>.cls-1{fill:#e6e4e5;}.cls-2{fill:url(#linear-gradient);}.cls-3{stroke:#e6e4e5;stroke-width:2px;fill:url(#linear-gradient-2);}.cls-3,.cls-5,.cls-6{stroke-miterlimit:10;}.cls-4,.cls-6{fill:#fff;}.cls-5{fill:none;}.cls-5,.cls-6{stroke:#58e06b;stroke-linecap:round;}.cls-6{stroke-width:1.5px;}</style><linearGradient id="linear-gradient" x1="6.75" y1="47.1" x2="138.98" y2="47.1" gradientUnits="userSpaceOnUse"><stop offset="0.2" stop-color="#58e06b"/><stop offset="0.48" stop-color="#4ac752"/><stop offset="0.79" stop-color="#3eb23d"/><stop offset="1" stop-color="#3aaa35"/></linearGradient><linearGradient id="linear-gradient-2" x1="24.3" y1="46.52" x2="94.51" y2="46.52" gradientUnits="userSpaceOnUse"><stop offset="0.2" stop-color="#58e06b"/><stop offset="0.37" stop-color="#54dc69"/><stop offset="0.54" stop-color="#48d161"/><stop offset="0.71" stop-color="#33bd55"/><stop offset="0.89" stop-color="#16a244"/><stop offset="1" stop-color="#008d36"/></linearGradient></defs><rect class="cls-1" y="0.3" width="150" height="93.77" rx="9.4"/><path class="cls-2" d="M135,87.8H15.1c-4.6,0-8.3-5.5-8.3-11.9V12.1a5.5,5.5,0,0,1,5.5-5.7H91.9c3,0,6.9,2.5,8.7,5.7l36,63.8C140.3,82.3,139.6,87.8,135,87.8Z"/><circle class="cls-3" cx="59.4" cy="46.5" r="35.1"/><circle class="cls-4" cx="38.4" cy="46.5" r="7"/><path class="cls-5" d="M34,48s2.5-3.8,9.3-2.2"/><path class="cls-4" d="M69.9,51.6c.2,4.6-4.6,8.8-10.6,9.3s-11-2.7-11.2-7.2,4.7-8.8,10.7-9.3S69.8,47,69.9,51.6Z"/><path class="cls-6" d="M52.9,53.2a9.8,9.8,0,0,0,12.9-1.8"/><path class="cls-4" d="M82.8,39.1a7,7,0,1,1-7-7A6.9,6.9,0,0,1,82.8,39.1Z"/><path class="cls-5" d="M71.4,40.5s2.5-3.8,9.3-2.2"/></svg>